<svg width="24" height="24" viewBox="0 0 24 24" fill="none" xmlns="http://www.w3.org/2000/svg">
<path d="M19.6059 11.0496L12.9448 4.38018C12.818 4.25874 12.6686 4.16355 12.5051 4.10006C12.1808 3.96665 11.817 3.96665 11.4926 4.10006C11.3291 4.16355 11.1797 4.25874 11.053 4.38018L4.3918 11.0496C4.26758 11.174 4.16905 11.3216 4.10183 11.4841C4.0346 11.6466 4 11.8208 4 11.9967C4 12.3519 4.14093 12.6926 4.3918 12.9437C4.64266 13.1949 4.98291 13.336 5.33769 13.336C5.69246 13.336 6.03271 13.1949 6.28357 12.9437L10.6666 8.54191V18.6661C10.6666 19.0199 10.807 19.3592 11.0568 19.6093C11.3067 19.8595 11.6455 20 11.9989 20C12.3522 20 12.6911 19.8595 12.9409 19.6093C13.1907 19.3592 13.3311 19.0199 13.3311 18.6661V8.54191L17.7142 12.9437C17.838 13.0688 17.9853 13.168 18.1477 13.2357C18.31 13.3034 18.4842 13.3383 18.66 13.3383C18.8359 13.3383 19.01 13.3034 19.1724 13.2357C19.3347 13.168 19.4821 13.0688 19.6059 12.9437C19.7308 12.8197 19.8299 12.6722 19.8975 12.5097C19.9652 12.3471 20 12.1728 20 11.9967C20 11.8206 19.9652 11.6462 19.8975 11.4837C19.8299 11.3211 19.7308 11.1736 19.6059 11.0496Z" fill="#222222"/>
</svg>
