<svg width="31" height="30" viewBox="0 0 31 30" fill="none" xmlns="http://www.w3.org/2000/svg">
<g clip-path="url(#clip0_281_2631)">
<path d="M25.5 22.5C26.875 22.5 27.9875 21.375 27.9875 20L28 7.5C28 6.1125 26.875 5 25.5 5H5.5C4.1125 5 3 6.1125 3 7.5V20C3 21.375 4.1125 22.5 5.5 22.5H0.5V25H30.5V22.5H25.5ZM5.5 20V7.5H25.5V20.0125L5.5 20ZM16.75 11.4125C11.8875 12.0875 9.95 15.4125 9.25 18.75C10.9875 16.4125 13.275 15.35 16.75 15.35V18.0875L21.75 13.4125L16.75 8.75V11.4125Z" fill="#323232"/>
</g>
<defs>
<clipPath id="clip0_281_2631">
<rect width="30" height="30" fill="white" transform="translate(0.5)"/>
</clipPath>
</defs>
</svg>
