<svg width="31" height="30" viewBox="0 0 31 30" fill="none" xmlns="http://www.w3.org/2000/svg">
<g clip-path="url(#clip0_281_2625)">
<path d="M5.5 11.25H20.5C21.1875 11.25 21.75 10.6875 21.75 10C21.75 9.3125 21.1875 8.75 20.5 8.75H5.5C4.8125 8.75 4.25 9.3125 4.25 10C4.25 10.6875 4.8125 11.25 5.5 11.25ZM5.5 16.25H20.5C21.1875 16.25 21.75 15.6875 21.75 15C21.75 14.3125 21.1875 13.75 20.5 13.75H5.5C4.8125 13.75 4.25 14.3125 4.25 15C4.25 15.6875 4.8125 16.25 5.5 16.25ZM5.5 21.25H20.5C21.1875 21.25 21.75 20.6875 21.75 20C21.75 19.3125 21.1875 18.75 20.5 18.75H5.5C4.8125 18.75 4.25 19.3125 4.25 20C4.25 20.6875 4.8125 21.25 5.5 21.25ZM24.25 21.25H26.75V18.75H24.25V21.25ZM24.25 8.75V11.25H26.75V8.75H24.25ZM24.25 16.25H26.75V13.75H24.25V16.25Z" fill="#323232"/>
</g>
<defs>
<clipPath id="clip0_281_2625">
<rect width="30" height="30" fill="white" transform="translate(0.5)"/>
</clipPath>
</defs>
</svg>
