<svg width="30" height="30" viewBox="0 0 30 30" fill="none" xmlns="http://www.w3.org/2000/svg">
<g clip-path="url(#clip0_281_2628)">
<path d="M15 2.5C8.1 2.5 2.5 8.1 2.5 15C2.5 21.9 8.1 27.5 15 27.5C21.9 27.5 27.5 21.9 27.5 15C27.5 8.1 21.9 2.5 15 2.5ZM15 25C9.475 25 5 20.525 5 15C5 9.475 9.475 5 15 5C20.525 5 25 9.475 25 15C25 20.525 20.525 25 15 25Z" fill="#323232"/>
<path d="M8.75 16.875C9.78553 16.875 10.625 16.0355 10.625 15C10.625 13.9645 9.78553 13.125 8.75 13.125C7.71447 13.125 6.875 13.9645 6.875 15C6.875 16.0355 7.71447 16.875 8.75 16.875Z" fill="#323232"/>
<path d="M15 16.875C16.0355 16.875 16.875 16.0355 16.875 15C16.875 13.9645 16.0355 13.125 15 13.125C13.9645 13.125 13.125 13.9645 13.125 15C13.125 16.0355 13.9645 16.875 15 16.875Z" fill="#323232"/>
<path d="M21.25 16.875C22.2855 16.875 23.125 16.0355 23.125 15C23.125 13.9645 22.2855 13.125 21.25 13.125C20.2145 13.125 19.375 13.9645 19.375 15C19.375 16.0355 20.2145 16.875 21.25 16.875Z" fill="#323232"/>
</g>
<defs>
<clipPath id="clip0_281_2628">
<rect width="30" height="30" fill="white"/>
</clipPath>
</defs>
</svg>
