<svg width="30" height="30" viewBox="0 0 30 30" fill="none" xmlns="http://www.w3.org/2000/svg">
<g clip-path="url(#clip0_281_2311)">
<path d="M25 2.5H5C3.625 2.5 2.5 3.625 2.5 5V25C2.5 26.375 3.625 27.5 5 27.5H25C26.375 27.5 27.5 26.375 27.5 25V5C27.5 3.625 26.375 2.5 25 2.5ZM10 25H5V20H10V25ZM10 17.5H5V12.5H10V17.5ZM10 10H5V5H10V10ZM17.5 25H12.5V20H17.5V25ZM17.5 17.5H12.5V12.5H17.5V17.5ZM17.5 10H12.5V5H17.5V10ZM25 25H20V20H25V25ZM25 17.5H20V12.5H25V17.5ZM25 10H20V5H25V10Z" fill="#323232"/>
</g>
<defs>
<clipPath id="clip0_281_2311">
<rect width="30" height="30" fill="white"/>
</clipPath>
</defs>
</svg>
