<svg width="24" height="24" viewBox="0 0 24 24" fill="none" xmlns="http://www.w3.org/2000/svg">
<path d="M0.75 3.25H3.25V0.75C1.875 0.75 0.75 1.875 0.75 3.25ZM0.75 13.25H3.25V10.75H0.75V13.25ZM5.75 23.25H8.25V20.75H5.75V23.25ZM0.75 8.25H3.25V5.75H0.75V8.25ZM13.25 0.75H10.75V3.25H13.25V0.75ZM20.75 0.75V3.25H23.25C23.25 1.875 22.125 0.75 20.75 0.75ZM3.25 23.25V20.75H0.75C0.75 22.125 1.875 23.25 3.25 23.25ZM0.75 18.25H3.25V15.75H0.75V18.25ZM8.25 0.75H5.75V3.25H8.25V0.75ZM10.75 23.25H13.25V20.75H10.75V23.25ZM20.75 13.25H23.25V10.75H20.75V13.25ZM20.75 23.25C22.125 23.25 23.25 22.125 23.25 20.75H20.75V23.25ZM20.75 8.25H23.25V5.75H20.75V8.25ZM20.75 18.25H23.25V15.75H20.75V18.25ZM15.75 23.25H18.25V20.75H15.75V23.25ZM15.75 3.25H18.25V0.75H15.75V3.25ZM5.75 18.25H18.25V5.75H5.75V18.25ZM8.25 8.25H15.75V15.75H8.25V8.25Z" fill="black"/>
</svg>
