<svg width="31" height="30" viewBox="0 0 31 30" fill="none" xmlns="http://www.w3.org/2000/svg">
<g clip-path="url(#clip0_281_2314)">
<path d="M26.75 3.75H4.25C2.875 3.75 1.75 4.875 1.75 6.25V21.25C1.75 22.625 2.875 23.75 4.25 23.75H10.5V26.25H20.5V23.75H26.75C28.125 23.75 29.25 22.625 29.25 21.25V6.25C29.25 4.875 28.125 3.75 26.75 3.75ZM26.75 21.25H4.25V6.25H26.75V21.25Z" fill="#323232"/>
<path d="M21.9545 9C20.8341 9 20.2082 10.08 20.4632 10.8825L17.72 13.5525C17.4882 13.485 17.1482 13.485 16.9164 13.5525L14.9459 11.64C15.2086 10.8375 14.5827 9.75 13.4545 9.75C12.3341 9.75 11.7005 10.83 11.9632 11.64L8.43955 15.0525C7.61273 14.805 6.5 15.4125 6.5 16.5C6.5 17.325 7.19545 18 8.04545 18C9.16591 18 9.79182 16.92 9.53682 16.1175L13.0527 12.6975C13.2845 12.765 13.6245 12.765 13.8564 12.6975L15.8268 14.61C15.5641 15.4125 16.19 16.5 17.3182 16.5C18.4386 16.5 19.0723 15.42 18.8095 14.61L21.5605 11.9475C22.3873 12.195 23.5 11.5875 23.5 10.5C23.5 9.675 22.8045 9 21.9545 9Z" fill="#323232"/>
</g>
<defs>
<clipPath id="clip0_281_2314">
<rect width="30" height="30" fill="white" transform="translate(0.5)"/>
</clipPath>
</defs>
</svg>
