<svg width="31" height="30" viewBox="0 0 31 30" fill="none" xmlns="http://www.w3.org/2000/svg">
<g clip-path="url(#clip0_281_2317)">
<path d="M14.8625 20C15.9625 20 16.9875 19.675 17.85 19.125L20.9 22.175L22.675 20.4L19.625 17.3625C20.175 16.4875 20.5 15.475 20.5 14.375C20.5 11.2625 17.9875 8.75 14.875 8.75C11.7625 8.75 9.25 11.2625 9.25 14.375C9.25 17.4875 11.7625 20 14.8625 20ZM14.875 11.25C16.6 11.25 18 12.65 18 14.375C18 16.1 16.6 17.5 14.875 17.5C13.15 17.5 11.75 16.1 11.75 14.375C11.75 12.65 13.15 11.25 14.875 11.25ZM25.5 5H5.5C4.125 5 3 6.125 3 7.5V22.5C3 23.875 4.125 25 5.5 25H25.5C26.875 25 28 23.875 28 22.5V7.5C28 6.125 26.875 5 25.5 5ZM25.5 22.5H5.5V7.5H25.5V22.5Z" fill="#323232"/>
</g>
<defs>
<clipPath id="clip0_281_2317">
<rect width="30" height="30" fill="white" transform="translate(0.5)"/>
</clipPath>
</defs>
</svg>
