<svg width="25" height="26" viewBox="0 0 25 26" fill="none" xmlns="http://www.w3.org/2000/svg">
<path d="M8.75 13C8.75 15.075 10.425 16.75 12.5 16.75C14.575 16.75 16.25 15.075 16.25 13C16.25 10.925 14.575 9.25 12.5 9.25C10.425 9.25 8.75 10.925 8.75 13ZM13.75 13C13.75 13.6875 13.1875 14.25 12.5 14.25C11.8125 14.25 11.25 13.6875 11.25 13C11.25 12.3125 11.8125 11.75 12.5 11.75C13.1875 11.75 13.75 12.3125 13.75 13Z" fill="#323232"/>
<path d="M7.5 10.5V8H3.8625C5.5875 5.0125 8.8125 3 12.5 3C17.15 3 21.0625 6.2 22.175 10.5H24.75C23.5875 4.8 18.55 0.5 12.5 0.5C8.4125 0.5 4.775 2.475 2.5 5.5125V3H0V10.5H7.5Z" fill="#323232"/>
<path d="M17.5 15.5V18H21.1375C19.4125 20.9875 16.1875 23 12.5 23C7.85 23 3.9375 19.8 2.825 15.5H0.25C1.4125 21.2 6.45 25.5 12.5 25.5C16.5875 25.5 20.225 23.525 22.5 20.4875V23H25V15.5H17.5Z" fill="#323232"/>
</svg>
