<svg width="31" height="30" viewBox="0 0 31 30" fill="none" xmlns="http://www.w3.org/2000/svg">
<g clip-path="url(#clip0_281_2323)">
<path d="M18 8.75C18.6904 8.75 19.25 8.19036 19.25 7.5C19.25 6.80964 18.6904 6.25 18 6.25C17.3096 6.25 16.75 6.80964 16.75 7.5C16.75 8.19036 17.3096 8.75 18 8.75Z" fill="#323232"/>
<path d="M17.75 14.35L18 14.375C19.0375 14.375 19.875 13.5375 19.875 12.5C19.875 11.4625 19.0375 10.625 18 10.625C16.9625 10.625 16.125 11.4625 16.125 12.5L16.15 12.75C16.2625 13.5875 16.9125 14.2375 17.75 14.35ZM18 4.375C18.35 4.375 18.625 4.1 18.625 3.75C18.625 3.4 18.35 3.125 18 3.125C17.65 3.125 17.375 3.4 17.375 3.75C17.375 4.1 17.65 4.375 18 4.375ZM13 4.375C13.35 4.375 13.625 4.1 13.625 3.75C13.625 3.4 13.35 3.125 13 3.125C12.65 3.125 12.375 3.4 12.375 3.75C12.375 4.1 12.65 4.375 13 4.375Z" fill="#323232"/>
<path d="M23 13.75C23.6904 13.75 24.25 13.1904 24.25 12.5C24.25 11.8096 23.6904 11.25 23 11.25C22.3096 11.25 21.75 11.8096 21.75 12.5C21.75 13.1904 22.3096 13.75 23 13.75Z" fill="#323232"/>
<path d="M23 8.75C23.6904 8.75 24.25 8.19036 24.25 7.5C24.25 6.80964 23.6904 6.25 23 6.25C22.3096 6.25 21.75 6.80964 21.75 7.5C21.75 8.19036 22.3096 8.75 23 8.75Z" fill="#323232"/>
<path d="M26.75 13.125C27.1 13.125 27.375 12.85 27.375 12.5C27.375 12.15 27.1 11.875 26.75 11.875C26.4 11.875 26.125 12.15 26.125 12.5C26.125 12.85 26.4 13.125 26.75 13.125Z" fill="#323232"/>
<path d="M13 8.75C13.6904 8.75 14.25 8.19036 14.25 7.5C14.25 6.80964 13.6904 6.25 13 6.25C12.3096 6.25 11.75 6.80964 11.75 7.5C11.75 8.19036 12.3096 8.75 13 8.75Z" fill="#323232"/>
<path d="M23 18.75C23.6904 18.75 24.25 18.1904 24.25 17.5C24.25 16.8096 23.6904 16.25 23 16.25C22.3096 16.25 21.75 16.8096 21.75 17.5C21.75 18.1904 22.3096 18.75 23 18.75Z" fill="#323232"/>
<path d="M8 23.75C8.69036 23.75 9.25 23.1904 9.25 22.5C9.25 21.8096 8.69036 21.25 8 21.25C7.30964 21.25 6.75 21.8096 6.75 22.5C6.75 23.1904 7.30964 23.75 8 23.75Z" fill="#323232"/>
<path d="M18 25.625C17.65 25.625 17.375 25.9 17.375 26.25C17.375 26.6 17.65 26.875 18 26.875C18.35 26.875 18.625 26.6 18.625 26.25C18.625 25.9 18.35 25.625 18 25.625ZM26.75 16.875C26.4 16.875 26.125 17.15 26.125 17.5C26.125 17.85 26.4 18.125 26.75 18.125C27.1 18.125 27.375 17.85 27.375 17.5C27.375 17.15 27.1 16.875 26.75 16.875ZM4.25 16.875C3.9 16.875 3.625 17.15 3.625 17.5C3.625 17.85 3.9 18.125 4.25 18.125C4.6 18.125 4.875 17.85 4.875 17.5C4.875 17.15 4.6 16.875 4.25 16.875Z" fill="#323232"/>
<path d="M13 23.75C13.6904 23.75 14.25 23.1904 14.25 22.5C14.25 21.8096 13.6904 21.25 13 21.25C12.3096 21.25 11.75 21.8096 11.75 22.5C11.75 23.1904 12.3096 23.75 13 23.75Z" fill="#323232"/>
<path d="M4.25 11.875C3.9 11.875 3.625 12.15 3.625 12.5C3.625 12.85 3.9 13.125 4.25 13.125C4.6 13.125 4.875 12.85 4.875 12.5C4.875 12.15 4.6 11.875 4.25 11.875ZM13 25.625C12.65 25.625 12.375 25.9 12.375 26.25C12.375 26.6 12.65 26.875 13 26.875C13.35 26.875 13.625 26.6 13.625 26.25C13.625 25.9 13.35 25.625 13 25.625Z" fill="#323232"/>
<path d="M8 18.75C8.69036 18.75 9.25 18.1904 9.25 17.5C9.25 16.8096 8.69036 16.25 8 16.25C7.30964 16.25 6.75 16.8096 6.75 17.5C6.75 18.1904 7.30964 18.75 8 18.75Z" fill="#323232"/>
<path d="M3.625 6.58745L8 10.9625L8.35 11.3125L8 11.25C7.3125 11.25 6.75 11.8125 6.75 12.5C6.75 13.1875 7.3125 13.75 8 13.75C8.6875 13.75 9.25 13.1875 9.25 12.5C9.25 12.375 9.2125 12.2625 9.175 12.15L12.6875 15.6625C11.8 15.8 11.125 16.575 11.125 17.5C11.125 18.5375 11.9625 19.375 13 19.375C13.925 19.375 14.7 18.7 14.8375 17.8125L18.35 21.325C18.2375 21.2875 18.125 21.25 18 21.25C17.3125 21.25 16.75 21.8125 16.75 22.5C16.75 23.1875 17.3125 23.75 18 23.75C18.6875 23.75 19.25 23.1875 19.25 22.5C19.25 22.375 19.2125 22.2625 19.175 22.15L23.9 26.875H23.9125L25.675 25.1124L5.3875 4.82495L3.625 6.58745Z" fill="#323232"/>
</g>
<defs>
<clipPath id="clip0_281_2323">
<rect width="30" height="30" fill="white" transform="translate(0.5)"/>
</clipPath>
</defs>
</svg>
