<svg width="31" height="30" viewBox="0 0 31 30" fill="none" xmlns="http://www.w3.org/2000/svg">
<g clip-path="url(#clip0_281_7497)">
<path d="M24.6875 12.55C23.8375 8.2375 20.05 5 15.5 5C11.8875 5 8.75 7.05 7.1875 10.05C3.425 10.45 0.5 13.6375 0.5 17.5C0.5 21.6375 3.8625 25 8 25H24.25C27.7 25 30.5 22.2 30.5 18.75C30.5 15.45 27.9375 12.775 24.6875 12.55ZM24.25 22.5H8C5.2375 22.5 3 20.2625 3 17.5C3 14.9375 4.9125 12.8 7.45 12.5375L8.7875 12.4L9.4125 11.2125C10.6 8.925 12.925 7.5 15.5 7.5C18.775 7.5 21.6 9.825 22.2375 13.0375L22.6125 14.9125L24.525 15.05C26.475 15.175 28 16.8125 28 18.75C28 20.8125 26.3125 22.5 24.25 22.5ZM10.5 16.25H13.6875V20H17.3125V16.25H20.5L15.5 11.25L10.5 16.25Z" fill="#323232"/>
</g>
<defs>
<clipPath id="clip0_281_7497">
<rect width="30" height="30" fill="white" transform="translate(0.5)"/>
</clipPath>
</defs>
</svg>
