<svg width="31" height="30" viewBox="0 0 31 30" fill="none" xmlns="http://www.w3.org/2000/svg">
<g clip-path="url(#clip0_281_7500)">
<path d="M15.5 13.75C14.125 13.75 13 14.875 13 16.25C13 17.625 14.125 18.75 15.5 18.75C16.875 18.75 18 17.625 18 16.25C18 14.875 16.875 13.75 15.5 13.75ZM23 16.25C23 12.1125 19.6375 8.75 15.5 8.75C11.3625 8.75 8 12.1125 8 16.25C8 19.025 9.5125 21.4375 11.75 22.7375L13 20.5625C11.5125 19.6875 10.5 18.1 10.5 16.25C10.5 13.4875 12.7375 11.25 15.5 11.25C18.2625 11.25 20.5 13.4875 20.5 16.25C20.5 18.1 19.4875 19.6875 18 20.5625L19.25 22.7375C21.4875 21.4375 23 19.025 23 16.25ZM15.5 3.75C8.6 3.75 3 9.35 3 16.25C3 20.875 5.5125 24.9 9.2375 27.0625L10.4875 24.9C7.5125 23.1625 5.5 19.95 5.5 16.25C5.5 10.725 9.975 6.25 15.5 6.25C21.025 6.25 25.5 10.725 25.5 16.25C25.5 19.95 23.4875 23.1625 20.5 24.9L21.75 27.0625C25.4875 24.9 28 20.875 28 16.25C28 9.35 22.4 3.75 15.5 3.75Z" fill="#323232"/>
</g>
<defs>
<clipPath id="clip0_281_7500">
<rect width="30" height="30" fill="white" transform="translate(0.5)"/>
</clipPath>
</defs>
</svg>
