<svg width="30" height="30" viewBox="0 0 30 30" fill="none" xmlns="http://www.w3.org/2000/svg">
<g clip-path="url(#clip0_281_7482)">
<path d="M23.75 2.5H18.525C18 1.05 16.625 0 15 0C13.375 0 12 1.05 11.475 2.5H6.25C4.875 2.5 3.75 3.625 3.75 5V25C3.75 26.375 4.875 27.5 6.25 27.5H23.75C25.125 27.5 26.25 26.375 26.25 25V5C26.25 3.625 25.125 2.5 23.75 2.5ZM15 2.5C15.6875 2.5 16.25 3.0625 16.25 3.75C16.25 4.4375 15.6875 5 15 5C14.3125 5 13.75 4.4375 13.75 3.75C13.75 3.0625 14.3125 2.5 15 2.5ZM23.75 25H6.25V5H8.75V8.75H21.25V5H23.75V25Z" fill="#323232"/>
</g>
<defs>
<clipPath id="clip0_281_7482">
<rect width="30" height="30" fill="white"/>
</clipPath>
</defs>
</svg>
