<svg width="31" height="30" viewBox="0 0 31 30" fill="none" xmlns="http://www.w3.org/2000/svg">
<g clip-path="url(#clip0_281_7479)">
<path d="M15.5 1.25L4.25 6.25V13.75C4.25 20.6875 9.05 27.175 15.5 28.75C21.95 27.175 26.75 20.6875 26.75 13.75V6.25L15.5 1.25ZM24.25 13.75C24.25 16.0625 23.6125 18.3125 22.525 20.2625L20.7125 18.45C22.325 16.025 22.05 12.725 19.9125 10.5875C17.475 8.15 13.5125 8.15 11.075 10.5875C8.6375 13.025 8.6375 16.9875 11.075 19.425C13.2125 21.5625 16.5125 21.825 18.9375 20.225L21.0875 22.375C19.6 24.15 17.675 25.5125 15.5 26.175C10.475 24.6125 6.75 19.4 6.75 13.75V7.875L15.5 3.9875L24.25 7.875V13.75ZM15.5 18.75C13.425 18.75 11.75 17.075 11.75 15C11.75 12.925 13.425 11.25 15.5 11.25C17.575 11.25 19.25 12.925 19.25 15C19.25 17.075 17.575 18.75 15.5 18.75Z" fill="#323232"/>
</g>
<defs>
<clipPath id="clip0_281_7479">
<rect width="30" height="30" fill="white" transform="translate(0.5)"/>
</clipPath>
</defs>
</svg>
