<svg width="30" height="30" viewBox="0 0 30 30" fill="none" xmlns="http://www.w3.org/2000/svg">
<g clip-path="url(#clip0_281_7473)">
<path d="M13.75 8.75H21.25V11.25H13.75V8.75ZM13.75 13.75H21.25V16.25H13.75V13.75ZM13.75 18.75H21.25V21.25H13.75V18.75ZM8.75 8.75H11.25V11.25H8.75V8.75ZM8.75 13.75H11.25V16.25H8.75V13.75ZM8.75 18.75H11.25V21.25H8.75V18.75ZM25.125 3.75H4.875C4.25 3.75 3.75 4.25 3.75 4.875V25.125C3.75 25.625 4.25 26.25 4.875 26.25H25.125C25.625 26.25 26.25 25.625 26.25 25.125V4.875C26.25 4.25 25.625 3.75 25.125 3.75V3.75ZM23.75 23.75H6.25V6.25H23.75V23.75Z" fill="#323232"/>
</g>
<defs>
<clipPath id="clip0_281_7473">
<rect width="30" height="30" fill="white"/>
</clipPath>
</defs>
</svg>
