<svg width="31" height="30" viewBox="0 0 31 30" fill="none" xmlns="http://www.w3.org/2000/svg">
<g clip-path="url(#clip0_281_7476)">
<path d="M4.25 6.25H6.75V3.75C5.375 3.75 4.25 4.875 4.25 6.25ZM4.25 16.25H6.75V13.75H4.25V16.25ZM9.25 26.25H11.75V23.75H9.25V26.25ZM4.25 11.25H6.75V8.75H4.25V11.25ZM16.75 3.75H14.25V6.25H16.75V3.75ZM24.25 3.75V6.25H26.75C26.75 4.875 25.625 3.75 24.25 3.75ZM6.75 26.25V23.75H4.25C4.25 25.125 5.375 26.25 6.75 26.25ZM4.25 21.25H6.75V18.75H4.25V21.25ZM11.75 3.75H9.25V6.25H11.75V3.75ZM14.25 26.25H16.75V23.75H14.25V26.25ZM24.25 16.25H26.75V13.75H24.25V16.25ZM24.25 26.25C25.625 26.25 26.75 25.125 26.75 23.75H24.25V26.25ZM24.25 11.25H26.75V8.75H24.25V11.25ZM24.25 21.25H26.75V18.75H24.25V21.25ZM19.25 26.25H21.75V23.75H19.25V26.25ZM19.25 6.25H21.75V3.75H19.25V6.25ZM9.25 21.25H21.75V8.75H9.25V21.25ZM11.75 11.25H19.25V18.75H11.75V11.25Z" fill="#323232"/>
</g>
<defs>
<clipPath id="clip0_281_7476">
<rect width="30" height="30" fill="white" transform="translate(0.5)"/>
</clipPath>
</defs>
</svg>
